<mxfile host="Electron" agent="Mozilla/5.0 (Windows NT 10.0; Win64; x64) AppleWebKit/537.36 (KHTML, like Gecko) draw.io/26.0.16 Chrome/132.0.6834.196 Electron/34.2.0 Safari/537.36" version="26.0.16">
  <diagram name="Page-1" id="0">
    <mxGraphModel dx="2131" dy="836" grid="1" gridSize="10" guides="1" tooltips="1" connect="1" arrows="1" fold="1" page="1" pageScale="1" pageWidth="827" pageHeight="1169" math="0" shadow="0">
      <root>
        <mxCell id="0" />
        <mxCell id="1" parent="0" />
        <mxCell id="twyfpmHmYVcOmSDyWTZi-64" value="" style="rounded=0;whiteSpace=wrap;html=1;fillColor=none;" vertex="1" parent="1">
          <mxGeometry x="730" y="270" width="990" height="500" as="geometry" />
        </mxCell>
        <mxCell id="twyfpmHmYVcOmSDyWTZi-28" style="edgeStyle=orthogonalEdgeStyle;rounded=0;orthogonalLoop=1;jettySize=auto;html=1;exitX=1;exitY=0.5;exitDx=0;exitDy=0;entryX=0;entryY=0.5;entryDx=0;entryDy=0;" edge="1" parent="1" source="9fbe80f0-cae0-4d70-924c-7cafdfcf0932" target="e95126c3-c592-4726-9c18-821c52fbc67e">
          <mxGeometry relative="1" as="geometry" />
        </mxCell>
        <mxCell id="9fbe80f0-cae0-4d70-924c-7cafdfcf0932" value="Mobile App" style="shape=ellipse;whiteSpace=wrap;html=1;" parent="1" vertex="1">
          <mxGeometry x="-100" y="535" width="120" height="40" as="geometry" />
        </mxCell>
        <mxCell id="twyfpmHmYVcOmSDyWTZi-29" style="edgeStyle=orthogonalEdgeStyle;rounded=0;orthogonalLoop=1;jettySize=auto;html=1;exitX=1;exitY=0.5;exitDx=0;exitDy=0;entryX=0;entryY=0.5;entryDx=0;entryDy=0;" edge="1" parent="1" source="c977b3df-2b6c-4820-9c39-3343e45e56ac" target="e95126c3-c592-4726-9c18-821c52fbc67e">
          <mxGeometry relative="1" as="geometry" />
        </mxCell>
        <mxCell id="c977b3df-2b6c-4820-9c39-3343e45e56ac" value="In-store Tablet" style="shape=ellipse;whiteSpace=wrap;html=1;" parent="1" vertex="1">
          <mxGeometry x="-100" y="585" width="120" height="40" as="geometry" />
        </mxCell>
        <mxCell id="twyfpmHmYVcOmSDyWTZi-30" style="edgeStyle=orthogonalEdgeStyle;rounded=0;orthogonalLoop=1;jettySize=auto;html=1;exitX=1;exitY=0.5;exitDx=0;exitDy=0;" edge="1" parent="1" source="60558174-a864-4244-91a0-d1238305f4df">
          <mxGeometry relative="1" as="geometry">
            <mxPoint x="60" y="580" as="targetPoint" />
            <Array as="points">
              <mxPoint x="40" y="655" />
              <mxPoint x="40" y="580" />
            </Array>
          </mxGeometry>
        </mxCell>
        <mxCell id="60558174-a864-4244-91a0-d1238305f4df" value="Self-Service Totem" style="shape=ellipse;whiteSpace=wrap;html=1;" parent="1" vertex="1">
          <mxGeometry x="-100" y="635" width="120" height="40" as="geometry" />
        </mxCell>
        <mxCell id="twyfpmHmYVcOmSDyWTZi-56" style="edgeStyle=orthogonalEdgeStyle;rounded=0;orthogonalLoop=1;jettySize=auto;html=1;exitX=1;exitY=0.5;exitDx=0;exitDy=0;entryX=0;entryY=0.5;entryDx=0;entryDy=0;" edge="1" parent="1" source="2b2058b4-8a26-4f5f-ba90-19ca6644a2e2" target="twyfpmHmYVcOmSDyWTZi-7">
          <mxGeometry relative="1" as="geometry" />
        </mxCell>
        <mxCell id="twyfpmHmYVcOmSDyWTZi-57" style="edgeStyle=orthogonalEdgeStyle;rounded=0;orthogonalLoop=1;jettySize=auto;html=1;exitX=1;exitY=0.5;exitDx=0;exitDy=0;entryX=0;entryY=0.5;entryDx=0;entryDy=0;" edge="1" parent="1" source="2b2058b4-8a26-4f5f-ba90-19ca6644a2e2" target="twyfpmHmYVcOmSDyWTZi-9">
          <mxGeometry relative="1" as="geometry" />
        </mxCell>
        <mxCell id="2b2058b4-8a26-4f5f-ba90-19ca6644a2e2" value="BFF Mobile" style="shape=ellipse;whiteSpace=wrap;html=1;" parent="1" vertex="1">
          <mxGeometry x="270" y="500" width="120" height="40" as="geometry" />
        </mxCell>
        <mxCell id="twyfpmHmYVcOmSDyWTZi-2" style="edgeStyle=orthogonalEdgeStyle;rounded=0;orthogonalLoop=1;jettySize=auto;html=1;entryX=0;entryY=0.5;entryDx=0;entryDy=0;" edge="1" parent="1" source="e95126c3-c592-4726-9c18-821c52fbc67e" target="2b2058b4-8a26-4f5f-ba90-19ca6644a2e2">
          <mxGeometry relative="1" as="geometry" />
        </mxCell>
        <mxCell id="twyfpmHmYVcOmSDyWTZi-3" style="edgeStyle=orthogonalEdgeStyle;rounded=0;orthogonalLoop=1;jettySize=auto;html=1;entryX=0;entryY=0.5;entryDx=0;entryDy=0;" edge="1" parent="1" source="e95126c3-c592-4726-9c18-821c52fbc67e" target="twyfpmHmYVcOmSDyWTZi-1">
          <mxGeometry relative="1" as="geometry" />
        </mxCell>
        <mxCell id="e95126c3-c592-4726-9c18-821c52fbc67e" value="API Gateway" style="shape=ellipse;whiteSpace=wrap;html=1;" parent="1" vertex="1">
          <mxGeometry x="60" y="560" width="120" height="40" as="geometry" />
        </mxCell>
        <mxCell id="twyfpmHmYVcOmSDyWTZi-42" style="edgeStyle=orthogonalEdgeStyle;rounded=0;orthogonalLoop=1;jettySize=auto;html=1;" edge="1" parent="1" source="a2c9e656-3a97-471f-9a65-3db8d69c64bc">
          <mxGeometry relative="1" as="geometry">
            <mxPoint x="810" y="560" as="targetPoint" />
          </mxGeometry>
        </mxCell>
        <mxCell id="twyfpmHmYVcOmSDyWTZi-69" style="edgeStyle=orthogonalEdgeStyle;rounded=0;orthogonalLoop=1;jettySize=auto;html=1;entryX=0;entryY=0.5;entryDx=0;entryDy=0;" edge="1" parent="1" source="a2c9e656-3a97-471f-9a65-3db8d69c64bc" target="42b3b80b-835b-4856-87ec-1c4408d9901e">
          <mxGeometry relative="1" as="geometry" />
        </mxCell>
        <mxCell id="twyfpmHmYVcOmSDyWTZi-70" style="edgeStyle=orthogonalEdgeStyle;rounded=0;orthogonalLoop=1;jettySize=auto;html=1;exitX=1;exitY=0.5;exitDx=0;exitDy=0;" edge="1" parent="1" source="a2c9e656-3a97-471f-9a65-3db8d69c64bc" target="bacd2b14-ca32-404b-b0c3-f82c5a07aaa6">
          <mxGeometry relative="1" as="geometry" />
        </mxCell>
        <mxCell id="a2c9e656-3a97-471f-9a65-3db8d69c64bc" value="Order Service" style="shape=ellipse;whiteSpace=wrap;html=1;" parent="1" vertex="1">
          <mxGeometry x="750" y="490" width="120" height="40" as="geometry" />
        </mxCell>
        <mxCell id="twyfpmHmYVcOmSDyWTZi-51" style="edgeStyle=orthogonalEdgeStyle;rounded=0;orthogonalLoop=1;jettySize=auto;html=1;entryX=0;entryY=0.5;entryDx=0;entryDy=0;" edge="1" parent="1" source="c344d92e-ed44-4f73-9ede-931804a36ae8" target="e2a1188a-549a-4fd6-aba1-1d702564e70b">
          <mxGeometry relative="1" as="geometry" />
        </mxCell>
        <mxCell id="c344d92e-ed44-4f73-9ede-931804a36ae8" value="User Service/Register (Auth, Profile)" style="shape=ellipse;whiteSpace=wrap;html=1;" parent="1" vertex="1">
          <mxGeometry x="750" y="610" width="180" height="50" as="geometry" />
        </mxCell>
        <mxCell id="twyfpmHmYVcOmSDyWTZi-72" style="edgeStyle=orthogonalEdgeStyle;rounded=0;orthogonalLoop=1;jettySize=auto;html=1;exitX=1;exitY=0.5;exitDx=0;exitDy=0;entryX=0;entryY=0.5;entryDx=0;entryDy=0;" edge="1" parent="1" source="94176063-91cd-45ad-aa9a-61742892145d" target="bacd2b14-ca32-404b-b0c3-f82c5a07aaa6">
          <mxGeometry relative="1" as="geometry" />
        </mxCell>
        <mxCell id="94176063-91cd-45ad-aa9a-61742892145d" value="Payment Gateway (Pagar.me)" style="shape=ellipse;whiteSpace=wrap;html=1;" parent="1" vertex="1">
          <mxGeometry x="750" y="560" width="120" height="40" as="geometry" />
        </mxCell>
        <mxCell id="99423e59-7aae-44bd-9ac1-b0b6df49b927" value="Databases (PostgreSQL/MongoDB)" style="shape=ellipse;whiteSpace=wrap;html=1;" parent="1" vertex="1">
          <mxGeometry x="1050" y="610" width="150" height="50" as="geometry" />
        </mxCell>
        <mxCell id="e2a1188a-549a-4fd6-aba1-1d702564e70b" value="Observability Stack (Prometheus, Grafana, ELK)" style="shape=ellipse;whiteSpace=wrap;html=1;" parent="1" vertex="1">
          <mxGeometry x="1060" y="700" width="150" height="60" as="geometry" />
        </mxCell>
        <mxCell id="e4323282-50c5-4fe7-8d1c-8cf2ac9e275c" value="Notification Service (Email/SMS/Push)" style="shape=ellipse;whiteSpace=wrap;html=1;" parent="1" vertex="1">
          <mxGeometry x="1590" y="180" width="120" height="40" as="geometry" />
        </mxCell>
        <mxCell id="twyfpmHmYVcOmSDyWTZi-65" style="edgeStyle=orthogonalEdgeStyle;rounded=0;orthogonalLoop=1;jettySize=auto;html=1;exitX=1;exitY=0.5;exitDx=0;exitDy=0;entryX=0;entryY=0.5;entryDx=0;entryDy=0;" edge="1" parent="1" source="9d54bf56-95c4-4858-b9a7-8af0b0ec8a82" target="e4323282-50c5-4fe7-8d1c-8cf2ac9e275c">
          <mxGeometry relative="1" as="geometry" />
        </mxCell>
        <mxCell id="9d54bf56-95c4-4858-b9a7-8af0b0ec8a82" value="Message Broker (Kafka/RabbitMQ)" style="shape=ellipse;whiteSpace=wrap;html=1;" parent="1" vertex="1">
          <mxGeometry x="1390" y="180" width="120" height="40" as="geometry" />
        </mxCell>
        <mxCell id="bacd2b14-ca32-404b-b0c3-f82c5a07aaa6" value="Inventory Service" style="shape=ellipse;whiteSpace=wrap;html=1;" parent="1" vertex="1">
          <mxGeometry x="1065" y="530" width="120" height="40" as="geometry" />
        </mxCell>
        <mxCell id="42b3b80b-835b-4856-87ec-1c4408d9901e" value="Product Catalog (+ Redis Cache)" style="shape=ellipse;whiteSpace=wrap;html=1;" parent="1" vertex="1">
          <mxGeometry x="1050" y="290" width="120" height="40" as="geometry" />
        </mxCell>
        <mxCell id="fd0887d6-ce24-47cd-8a37-509ccf132684" value="Shipping &amp;amp; Tracking" style="shape=ellipse;whiteSpace=wrap;html=1;" parent="1" vertex="1">
          <mxGeometry x="1400" y="420" width="120" height="40" as="geometry" />
        </mxCell>
        <mxCell id="8f2ce936-a8fa-49d4-84e9-f222ccc155b8" value="Redis (Caching)" style="shape=ellipse;whiteSpace=wrap;html=1;" parent="1" vertex="1">
          <mxGeometry x="1250" y="290" width="120" height="40" as="geometry" />
        </mxCell>
        <mxCell id="6f657875-1c31-4eb8-a432-0a8cc35627a9" value="User Monitoring" style="shape=ellipse;whiteSpace=wrap;html=1;" parent="1" vertex="1">
          <mxGeometry x="1580" y="420" width="120" height="40" as="geometry" />
        </mxCell>
        <mxCell id="twyfpmHmYVcOmSDyWTZi-58" style="edgeStyle=orthogonalEdgeStyle;rounded=0;orthogonalLoop=1;jettySize=auto;html=1;exitX=0.5;exitY=0;exitDx=0;exitDy=0;" edge="1" parent="1" source="dc461e01-48f7-4d5f-9a13-f50a98ab6c2f" target="fd0887d6-ce24-47cd-8a37-509ccf132684">
          <mxGeometry relative="1" as="geometry" />
        </mxCell>
        <mxCell id="dc461e01-48f7-4d5f-9a13-f50a98ab6c2f" value="Local Fulfillment Center" style="shape=ellipse;whiteSpace=wrap;html=1;" parent="1" vertex="1">
          <mxGeometry x="1400" y="525" width="120" height="40" as="geometry" />
        </mxCell>
        <mxCell id="8e2e13aa-fae8-415e-8fbf-f31687c1a71e" value="" style="endArrow=block;" parent="1" source="c344d92e-ed44-4f73-9ede-931804a36ae8" target="99423e59-7aae-44bd-9ac1-b0b6df49b927" edge="1">
          <mxGeometry relative="1" as="geometry" />
        </mxCell>
        <mxCell id="a854c227-6a26-494a-96a9-efb48520a342" value="" style="endArrow=block;" parent="1" source="bacd2b14-ca32-404b-b0c3-f82c5a07aaa6" target="99423e59-7aae-44bd-9ac1-b0b6df49b927" edge="1">
          <mxGeometry relative="1" as="geometry" />
        </mxCell>
        <mxCell id="25cf210a-a546-4561-8c8a-6c1c89e2ec75" value="" style="endArrow=block;" parent="1" source="bacd2b14-ca32-404b-b0c3-f82c5a07aaa6" target="dc461e01-48f7-4d5f-9a13-f50a98ab6c2f" edge="1">
          <mxGeometry relative="1" as="geometry" />
        </mxCell>
        <mxCell id="54010d95-fd8a-43ae-9824-cf20b4458f78" value="" style="endArrow=block;" parent="1" source="42b3b80b-835b-4856-87ec-1c4408d9901e" target="8f2ce936-a8fa-49d4-84e9-f222ccc155b8" edge="1">
          <mxGeometry relative="1" as="geometry" />
        </mxCell>
        <mxCell id="ab8781e8-95ba-4476-8a16-744f5aeec415" value="" style="endArrow=block;" parent="1" source="fd0887d6-ce24-47cd-8a37-509ccf132684" target="6f657875-1c31-4eb8-a432-0a8cc35627a9" edge="1">
          <mxGeometry relative="1" as="geometry" />
        </mxCell>
        <mxCell id="twyfpmHmYVcOmSDyWTZi-54" style="edgeStyle=orthogonalEdgeStyle;rounded=0;orthogonalLoop=1;jettySize=auto;html=1;exitX=1;exitY=0.5;exitDx=0;exitDy=0;entryX=0;entryY=0.5;entryDx=0;entryDy=0;" edge="1" parent="1" source="twyfpmHmYVcOmSDyWTZi-1" target="twyfpmHmYVcOmSDyWTZi-9">
          <mxGeometry relative="1" as="geometry" />
        </mxCell>
        <mxCell id="twyfpmHmYVcOmSDyWTZi-55" style="edgeStyle=orthogonalEdgeStyle;rounded=0;orthogonalLoop=1;jettySize=auto;html=1;entryX=0;entryY=0.5;entryDx=0;entryDy=0;" edge="1" parent="1" source="twyfpmHmYVcOmSDyWTZi-1" target="twyfpmHmYVcOmSDyWTZi-7">
          <mxGeometry relative="1" as="geometry" />
        </mxCell>
        <mxCell id="twyfpmHmYVcOmSDyWTZi-1" value="BFF Web" style="shape=ellipse;whiteSpace=wrap;html=1;" vertex="1" parent="1">
          <mxGeometry x="270" y="610" width="120" height="40" as="geometry" />
        </mxCell>
        <mxCell id="twyfpmHmYVcOmSDyWTZi-26" style="edgeStyle=orthogonalEdgeStyle;rounded=0;orthogonalLoop=1;jettySize=auto;html=1;exitX=1;exitY=0.5;exitDx=0;exitDy=0;entryX=0;entryY=0.5;entryDx=0;entryDy=0;" edge="1" parent="1" source="twyfpmHmYVcOmSDyWTZi-4" target="e95126c3-c592-4726-9c18-821c52fbc67e">
          <mxGeometry relative="1" as="geometry" />
        </mxCell>
        <mxCell id="twyfpmHmYVcOmSDyWTZi-4" value="Web Site" style="shape=ellipse;whiteSpace=wrap;html=1;" vertex="1" parent="1">
          <mxGeometry x="-100" y="485" width="120" height="40" as="geometry" />
        </mxCell>
        <mxCell id="twyfpmHmYVcOmSDyWTZi-12" style="edgeStyle=orthogonalEdgeStyle;rounded=0;orthogonalLoop=1;jettySize=auto;html=1;entryX=0;entryY=0.5;entryDx=0;entryDy=0;" edge="1" parent="1" source="twyfpmHmYVcOmSDyWTZi-7" target="a2c9e656-3a97-471f-9a65-3db8d69c64bc">
          <mxGeometry relative="1" as="geometry" />
        </mxCell>
        <mxCell id="twyfpmHmYVcOmSDyWTZi-7" value="Load Balancer" style="shape=ellipse;whiteSpace=wrap;html=1;" vertex="1" parent="1">
          <mxGeometry x="450" y="490" width="120" height="40" as="geometry" />
        </mxCell>
        <mxCell id="twyfpmHmYVcOmSDyWTZi-10" style="edgeStyle=orthogonalEdgeStyle;rounded=0;orthogonalLoop=1;jettySize=auto;html=1;entryX=0;entryY=0.5;entryDx=0;entryDy=0;" edge="1" parent="1" source="twyfpmHmYVcOmSDyWTZi-9" target="c344d92e-ed44-4f73-9ede-931804a36ae8">
          <mxGeometry relative="1" as="geometry" />
        </mxCell>
        <mxCell id="twyfpmHmYVcOmSDyWTZi-9" value="Load Balancer" style="shape=ellipse;whiteSpace=wrap;html=1;" vertex="1" parent="1">
          <mxGeometry x="450" y="620" width="120" height="40" as="geometry" />
        </mxCell>
        <mxCell id="twyfpmHmYVcOmSDyWTZi-66" style="edgeStyle=orthogonalEdgeStyle;rounded=0;orthogonalLoop=1;jettySize=auto;html=1;" edge="1" parent="1" source="twyfpmHmYVcOmSDyWTZi-13" target="9d54bf56-95c4-4858-b9a7-8af0b0ec8a82">
          <mxGeometry relative="1" as="geometry" />
        </mxCell>
        <mxCell id="twyfpmHmYVcOmSDyWTZi-13" value="Load Balancer" style="shape=ellipse;whiteSpace=wrap;html=1;" vertex="1" parent="1">
          <mxGeometry x="1165" y="180" width="120" height="40" as="geometry" />
        </mxCell>
        <mxCell id="twyfpmHmYVcOmSDyWTZi-16" value="" style="rounded=1;whiteSpace=wrap;html=1;shadow=1;opacity=0;" vertex="1" parent="1">
          <mxGeometry x="460" y="410" width="120" height="60" as="geometry" />
        </mxCell>
        <mxCell id="twyfpmHmYVcOmSDyWTZi-45" style="edgeStyle=orthogonalEdgeStyle;rounded=0;orthogonalLoop=1;jettySize=auto;html=1;exitX=0.5;exitY=1;exitDx=0;exitDy=0;" edge="1" parent="1" source="e4323282-50c5-4fe7-8d1c-8cf2ac9e275c" target="e4323282-50c5-4fe7-8d1c-8cf2ac9e275c">
          <mxGeometry relative="1" as="geometry" />
        </mxCell>
        <mxCell id="twyfpmHmYVcOmSDyWTZi-59" value="USER&lt;div&gt;&lt;br&gt;&lt;/div&gt;" style="shape=umlActor;verticalLabelPosition=bottom;verticalAlign=top;html=1;outlineConnect=0;" vertex="1" parent="1">
          <mxGeometry x="1630" y="510" width="30" height="60" as="geometry" />
        </mxCell>
        <mxCell id="twyfpmHmYVcOmSDyWTZi-60" style="edgeStyle=orthogonalEdgeStyle;rounded=0;orthogonalLoop=1;jettySize=auto;html=1;entryX=0.546;entryY=1.033;entryDx=0;entryDy=0;entryPerimeter=0;" edge="1" parent="1" source="twyfpmHmYVcOmSDyWTZi-59" target="6f657875-1c31-4eb8-a432-0a8cc35627a9">
          <mxGeometry relative="1" as="geometry" />
        </mxCell>
        <mxCell id="twyfpmHmYVcOmSDyWTZi-73" style="edgeStyle=orthogonalEdgeStyle;rounded=0;orthogonalLoop=1;jettySize=auto;html=1;entryX=0.5;entryY=1;entryDx=0;entryDy=0;" edge="1" parent="1" source="twyfpmHmYVcOmSDyWTZi-64" target="twyfpmHmYVcOmSDyWTZi-13">
          <mxGeometry relative="1" as="geometry" />
        </mxCell>
        <mxCell id="twyfpmHmYVcOmSDyWTZi-76" value="1" style="text;html=1;align=center;verticalAlign=middle;whiteSpace=wrap;rounded=1;strokeColor=default;shadow=1;glass=0;" vertex="1" parent="1">
          <mxGeometry x="-120" y="480" width="20" height="20" as="geometry" />
        </mxCell>
        <mxCell id="twyfpmHmYVcOmSDyWTZi-78" value="5" style="text;html=1;align=center;verticalAlign=middle;whiteSpace=wrap;rounded=1;strokeColor=default;shadow=1;glass=0;" vertex="1" parent="1">
          <mxGeometry x="740" y="480" width="20" height="20" as="geometry" />
        </mxCell>
        <mxCell id="twyfpmHmYVcOmSDyWTZi-80" value="11" style="text;html=1;align=center;verticalAlign=middle;whiteSpace=wrap;rounded=1;strokeColor=default;shadow=1;glass=0;" vertex="1" parent="1">
          <mxGeometry x="1040" y="700" width="20" height="20" as="geometry" />
        </mxCell>
        <mxCell id="twyfpmHmYVcOmSDyWTZi-81" value="8" style="text;html=1;align=center;verticalAlign=middle;whiteSpace=wrap;rounded=1;strokeColor=default;shadow=1;glass=0;" vertex="1" parent="1">
          <mxGeometry x="1030" y="280" width="20" height="20" as="geometry" />
        </mxCell>
        <mxCell id="twyfpmHmYVcOmSDyWTZi-82" value="6" style="text;html=1;align=center;verticalAlign=middle;whiteSpace=wrap;rounded=1;strokeColor=default;shadow=1;glass=0;arcSize=0;" vertex="1" parent="1">
          <mxGeometry x="740" y="545" width="20" height="20" as="geometry" />
        </mxCell>
        <mxCell id="twyfpmHmYVcOmSDyWTZi-83" value="4" style="text;html=1;align=center;verticalAlign=middle;whiteSpace=wrap;rounded=1;strokeColor=default;shadow=1;glass=0;" vertex="1" parent="1">
          <mxGeometry x="510" y="570" width="20" height="20" as="geometry" />
        </mxCell>
        <mxCell id="twyfpmHmYVcOmSDyWTZi-84" value="2" style="text;html=1;align=center;verticalAlign=middle;whiteSpace=wrap;rounded=1;strokeColor=default;shadow=1;glass=0;" vertex="1" parent="1">
          <mxGeometry x="110" y="535" width="20" height="20" as="geometry" />
        </mxCell>
        <mxCell id="twyfpmHmYVcOmSDyWTZi-85" value="1" style="text;html=1;align=center;verticalAlign=middle;whiteSpace=wrap;rounded=1;strokeColor=default;shadow=1;glass=0;" vertex="1" parent="1">
          <mxGeometry x="-120" y="530" width="20" height="20" as="geometry" />
        </mxCell>
        <mxCell id="twyfpmHmYVcOmSDyWTZi-87" value="7" style="text;html=1;align=center;verticalAlign=middle;whiteSpace=wrap;rounded=1;strokeColor=default;shadow=1;glass=0;" vertex="1" parent="1">
          <mxGeometry x="740" y="600" width="20" height="20" as="geometry" />
        </mxCell>
        <mxCell id="twyfpmHmYVcOmSDyWTZi-88" value="3" style="text;html=1;align=center;verticalAlign=middle;whiteSpace=wrap;rounded=1;strokeColor=default;shadow=1;glass=0;" vertex="1" parent="1">
          <mxGeometry x="320" y="570" width="20" height="20" as="geometry" />
        </mxCell>
        <mxCell id="twyfpmHmYVcOmSDyWTZi-89" value="1" style="text;html=1;align=center;verticalAlign=middle;whiteSpace=wrap;rounded=1;strokeColor=default;shadow=1;glass=0;" vertex="1" parent="1">
          <mxGeometry x="-120" y="630" width="20" height="20" as="geometry" />
        </mxCell>
        <mxCell id="twyfpmHmYVcOmSDyWTZi-90" value="1" style="text;html=1;align=center;verticalAlign=middle;whiteSpace=wrap;rounded=1;strokeColor=default;shadow=1;glass=0;" vertex="1" parent="1">
          <mxGeometry x="-120" y="585" width="20" height="20" as="geometry" />
        </mxCell>
        <mxCell id="twyfpmHmYVcOmSDyWTZi-100" value="10" style="text;html=1;align=center;verticalAlign=middle;whiteSpace=wrap;rounded=1;strokeColor=default;shadow=1;glass=0;" vertex="1" parent="1">
          <mxGeometry x="1040" y="600" width="20" height="20" as="geometry" />
        </mxCell>
        <mxCell id="twyfpmHmYVcOmSDyWTZi-101" value="9" style="text;html=1;align=center;verticalAlign=middle;whiteSpace=wrap;rounded=1;strokeColor=default;shadow=1;glass=0;" vertex="1" parent="1">
          <mxGeometry x="1050" y="520" width="20" height="20" as="geometry" />
        </mxCell>
        <mxCell id="twyfpmHmYVcOmSDyWTZi-102" value="12" style="text;html=1;align=center;verticalAlign=middle;whiteSpace=wrap;rounded=1;strokeColor=default;shadow=1;glass=0;" vertex="1" parent="1">
          <mxGeometry x="1231" y="280" width="20" height="20" as="geometry" />
        </mxCell>
        <mxCell id="twyfpmHmYVcOmSDyWTZi-105" value="13" style="text;html=1;align=center;verticalAlign=middle;whiteSpace=wrap;rounded=1;strokeColor=default;shadow=1;glass=0;" vertex="1" parent="1">
          <mxGeometry x="1380" y="410" width="20" height="20" as="geometry" />
        </mxCell>
        <mxCell id="twyfpmHmYVcOmSDyWTZi-106" value="15" style="text;html=1;align=center;verticalAlign=middle;whiteSpace=wrap;rounded=1;strokeColor=default;shadow=1;glass=0;arcSize=0;" vertex="1" parent="1">
          <mxGeometry x="1560" y="410" width="20" height="20" as="geometry" />
        </mxCell>
        <mxCell id="twyfpmHmYVcOmSDyWTZi-107" value="14" style="text;html=1;align=center;verticalAlign=middle;whiteSpace=wrap;rounded=1;strokeColor=default;shadow=1;glass=0;" vertex="1" parent="1">
          <mxGeometry x="1380" y="515" width="20" height="20" as="geometry" />
        </mxCell>
        <mxCell id="twyfpmHmYVcOmSDyWTZi-109" value="17" style="text;html=1;align=center;verticalAlign=middle;whiteSpace=wrap;rounded=1;strokeColor=default;shadow=1;glass=0;" vertex="1" parent="1">
          <mxGeometry x="1370" y="170" width="20" height="20" as="geometry" />
        </mxCell>
        <mxCell id="twyfpmHmYVcOmSDyWTZi-111" value="16" style="text;html=1;align=center;verticalAlign=middle;whiteSpace=wrap;rounded=1;strokeColor=default;shadow=1;glass=0;" vertex="1" parent="1">
          <mxGeometry x="1150" y="170" width="20" height="20" as="geometry" />
        </mxCell>
        <mxCell id="twyfpmHmYVcOmSDyWTZi-112" value="18" style="text;html=1;align=center;verticalAlign=middle;whiteSpace=wrap;rounded=1;strokeColor=default;shadow=1;glass=0;arcSize=0;" vertex="1" parent="1">
          <mxGeometry x="1570" y="170" width="20" height="20" as="geometry" />
        </mxCell>
      </root>
    </mxGraphModel>
  </diagram>
</mxfile>
